<svg width="1082" height="639" viewBox="0 0 1082 639" fill="none" xmlns="http://www.w3.org/2000/svg">
<g clip-path="url(#clip0_44_775)">
<path d="M1081.15 609.63H25.58V638.54H1081.15V609.63Z" fill="#65617D"/>
<g opacity="0.1">
<path d="M394.65 19.3601H329.67C324.191 19.3601 319.75 23.8014 319.75 29.2801V48.1701C319.75 53.6488 324.191 58.0901 329.67 58.0901H394.65C400.129 58.0901 404.57 53.6488 404.57 48.1701V29.2801C404.57 23.8014 400.129 19.3601 394.65 19.3601Z" fill="#9FCAFF"/>
<path d="M479.47 19.3601H414.49C409.011 19.3601 404.57 23.8014 404.57 29.2801V48.1701C404.57 53.6488 409.011 58.0901 414.49 58.0901H479.47C484.949 58.0901 489.39 53.6488 489.39 48.1701V29.2801C489.39 23.8014 484.949 19.3601 479.47 19.3601Z" fill="#9FCAFF"/>
<path d="M564.29 19.3601H499.31C493.831 19.3601 489.39 23.8014 489.39 29.2801V48.1701C489.39 53.6488 493.831 58.0901 499.31 58.0901H564.29C569.769 58.0901 574.21 53.6488 574.21 48.1701V29.2801C574.21 23.8014 569.769 19.3601 564.29 19.3601Z" fill="#9FCAFF"/>
<path d="M649.1 19.3601H584.12C578.641 19.3601 574.2 23.8014 574.2 29.2801V48.1701C574.2 53.6488 578.641 58.0901 584.12 58.0901H649.1C654.579 58.0901 659.02 53.6488 659.02 48.1701V29.2801C659.02 23.8014 654.579 19.3601 649.1 19.3601Z" fill="#9FCAFF"/>
<path d="M394.65 55.95H329.67C324.191 55.95 319.75 60.3913 319.75 65.87V84.76C319.75 90.2386 324.191 94.68 329.67 94.68H394.65C400.129 94.68 404.57 90.2386 404.57 84.76V65.87C404.57 60.3913 400.129 55.95 394.65 55.95Z" fill="#9FCAFF"/>
<path d="M479.47 55.95H414.49C409.011 55.95 404.57 60.3913 404.57 65.87V84.76C404.57 90.2386 409.011 94.68 414.49 94.68H479.47C484.949 94.68 489.39 90.2386 489.39 84.76V65.87C489.39 60.3913 484.949 55.95 479.47 55.95Z" fill="#9FCAFF"/>
<path d="M564.29 55.95H499.31C493.831 55.95 489.39 60.3913 489.39 65.87V84.76C489.39 90.2386 493.831 94.68 499.31 94.68H564.29C569.769 94.68 574.21 90.2386 574.21 84.76V65.87C574.21 60.3913 569.769 55.95 564.29 55.95Z" fill="#9FCAFF"/>
<path d="M649.1 55.95H584.12C578.641 55.95 574.2 60.3913 574.2 65.87V84.76C574.2 90.2386 578.641 94.68 584.12 94.68H649.1C654.579 94.68 659.02 90.2386 659.02 84.76V65.87C659.02 60.3913 654.579 55.95 649.1 55.95Z" fill="#9FCAFF"/>
<path d="M307.95 92.4299H246.73C240.213 92.4299 234.93 97.713 234.93 104.23V119.36C234.93 125.877 240.213 131.16 246.73 131.16H307.95C314.467 131.16 319.75 125.877 319.75 119.36V104.23C319.75 97.713 314.467 92.4299 307.95 92.4299Z" fill="#9FCAFF"/>
<path d="M477.59 92.4299H416.37C409.853 92.4299 404.57 97.713 404.57 104.23V119.36C404.57 125.877 409.853 131.16 416.37 131.16H477.59C484.107 131.16 489.39 125.877 489.39 119.36V104.23C489.39 97.713 484.107 92.4299 477.59 92.4299Z" fill="#9FCAFF"/>
<path d="M562.41 92.4299H501.19C494.673 92.4299 489.39 97.713 489.39 104.23V119.36C489.39 125.877 494.673 131.16 501.19 131.16H562.41C568.927 131.16 574.21 125.877 574.21 119.36V104.23C574.21 97.713 568.927 92.4299 562.41 92.4299Z" fill="#9FCAFF"/>
<path d="M647.22 92.4299H586C579.483 92.4299 574.2 97.713 574.2 104.23V119.36C574.2 125.877 579.483 131.16 586 131.16H647.22C653.737 131.16 659.02 125.877 659.02 119.36V104.23C659.02 97.713 653.737 92.4299 647.22 92.4299Z" fill="#9FCAFF"/>
<path d="M392.77 129.01H331.55C325.033 129.01 319.75 134.293 319.75 140.81V155.94C319.75 162.457 325.033 167.74 331.55 167.74H392.77C399.287 167.74 404.57 162.457 404.57 155.94V140.81C404.57 134.293 399.287 129.01 392.77 129.01Z" fill="#9FCAFF"/>
<path d="M477.59 129.01H416.37C409.853 129.01 404.57 134.293 404.57 140.81V155.94C404.57 162.457 409.853 167.74 416.37 167.74H477.59C484.107 167.74 489.39 162.457 489.39 155.94V140.81C489.39 134.293 484.107 129.01 477.59 129.01Z" fill="#9FCAFF"/>
<path d="M562.41 129.01H501.19C494.673 129.01 489.39 134.293 489.39 140.81V155.94C489.39 162.457 494.673 167.74 501.19 167.74H562.41C568.927 167.74 574.21 162.457 574.21 155.94V140.81C574.21 134.293 568.927 129.01 562.41 129.01Z" fill="#9FCAFF"/>
<path d="M307.95 165.49H246.73C240.213 165.49 234.93 170.773 234.93 177.29V192.42C234.93 198.937 240.213 204.22 246.73 204.22H307.95C314.467 204.22 319.75 198.937 319.75 192.42V177.29C319.75 170.773 314.467 165.49 307.95 165.49Z" fill="#9FCAFF"/>
<path d="M307.95 275.14H246.73C240.213 275.14 234.93 280.423 234.93 286.94V302.07C234.93 308.587 240.213 313.87 246.73 313.87H307.95C314.467 313.87 319.75 308.587 319.75 302.07V286.94C319.75 280.423 314.467 275.14 307.95 275.14Z" fill="#9FCAFF"/>
<path d="M477.59 165.49H416.37C409.853 165.49 404.57 170.773 404.57 177.29V192.42C404.57 198.937 409.853 204.22 416.37 204.22H477.59C484.107 204.22 489.39 198.937 489.39 192.42V177.29C489.39 170.773 484.107 165.49 477.59 165.49Z" fill="#9FCAFF"/>
<path d="M562.41 165.49H501.19C494.673 165.49 489.39 170.773 489.39 177.29V192.42C489.39 198.937 494.673 204.22 501.19 204.22H562.41C568.927 204.22 574.21 198.937 574.21 192.42V177.29C574.21 170.773 568.927 165.49 562.41 165.49Z" fill="#9FCAFF"/>
<path d="M647.22 165.49H586C579.483 165.49 574.2 170.773 574.2 177.29V192.42C574.2 198.937 579.483 204.22 586 204.22H647.22C653.737 204.22 659.02 198.937 659.02 192.42V177.29C659.02 170.773 653.737 165.49 647.22 165.49Z" fill="#9FCAFF"/>
<path d="M732.04 55.95H670.82C664.303 55.95 659.02 61.233 659.02 67.75V82.8799C659.02 89.3969 664.303 94.68 670.82 94.68H732.04C738.557 94.68 743.84 89.3969 743.84 82.8799V67.75C743.84 61.233 738.557 55.95 732.04 55.95Z" fill="#9FCAFF"/>
<path d="M737.08 129.01H665.78C662.047 129.01 659.02 132.037 659.02 135.77V160.98C659.02 164.713 662.047 167.74 665.78 167.74H737.08C740.813 167.74 743.84 164.713 743.84 160.98V135.77C743.84 132.037 740.813 129.01 737.08 129.01Z" fill="#9FCAFF"/>
<path d="M737.08 165.49H665.78C662.047 165.49 659.02 168.517 659.02 172.25V197.46C659.02 201.193 662.047 204.22 665.78 204.22H737.08C740.813 204.22 743.84 201.193 743.84 197.46V172.25C743.84 168.517 740.813 165.49 737.08 165.49Z" fill="#9FCAFF"/>
<path d="M393.01 202.08H331.31C324.926 202.08 319.75 207.256 319.75 213.64V229.25C319.75 235.634 324.926 240.81 331.31 240.81H393.01C399.394 240.81 404.57 235.634 404.57 229.25V213.64C404.57 207.256 399.394 202.08 393.01 202.08Z" fill="#9FCAFF"/>
<path d="M477.83 202.08H416.13C409.746 202.08 404.57 207.256 404.57 213.64V229.25C404.57 235.634 409.746 240.81 416.13 240.81H477.83C484.214 240.81 489.39 235.634 489.39 229.25V213.64C489.39 207.256 484.214 202.08 477.83 202.08Z" fill="#9FCAFF"/>
<path d="M562.65 202.08H500.95C494.566 202.08 489.39 207.256 489.39 213.64V229.25C489.39 235.634 494.566 240.81 500.95 240.81H562.65C569.034 240.81 574.21 235.634 574.21 229.25V213.64C574.21 207.256 569.034 202.08 562.65 202.08Z" fill="#9FCAFF"/>
<path d="M647.46 202.08H585.76C579.376 202.08 574.2 207.256 574.2 213.64V229.25C574.2 235.634 579.376 240.81 585.76 240.81H647.46C653.844 240.81 659.02 235.634 659.02 229.25V213.64C659.02 207.256 653.844 202.08 647.46 202.08Z" fill="#9FCAFF"/>
<path d="M308.19 238.55H246.49C240.106 238.55 234.93 243.726 234.93 250.11V265.72C234.93 272.104 240.106 277.28 246.49 277.28H308.19C314.574 277.28 319.75 272.104 319.75 265.72V250.11C319.75 243.726 314.574 238.55 308.19 238.55Z" fill="#9FCAFF"/>
<path d="M223.37 238.55H161.67C155.286 238.55 150.11 243.726 150.11 250.11V265.72C150.11 272.104 155.286 277.28 161.67 277.28H223.37C229.754 277.28 234.93 272.104 234.93 265.72V250.11C234.93 243.726 229.754 238.55 223.37 238.55Z" fill="#9FCAFF"/>
<path d="M202.26 0H140.56C134.176 0 129 5.17559 129 11.56V27.17C129 33.5544 134.176 38.73 140.56 38.73H202.26C208.644 38.73 213.82 33.5544 213.82 27.17V11.56C213.82 5.17559 208.644 0 202.26 0Z" fill="#9FCAFF"/>
<path d="M150.26 38.73H88.56C82.1756 38.73 77 43.9056 77 50.29V65.9C77 72.2844 82.1756 77.46 88.56 77.46H150.26C156.644 77.46 161.82 72.2844 161.82 65.9V50.29C161.82 43.9056 156.644 38.73 150.26 38.73Z" fill="#9FCAFF"/>
<path d="M73.26 180.49H11.56C5.17559 180.49 0 185.666 0 192.05V207.66C0 214.044 5.17559 219.22 11.56 219.22H73.26C79.6444 219.22 84.82 214.044 84.82 207.66V192.05C84.82 185.666 79.6444 180.49 73.26 180.49Z" fill="#9FCAFF"/>
<path d="M115.67 219.18H53.97C47.5856 219.18 42.41 224.356 42.41 230.74V246.35C42.41 252.734 47.5856 257.91 53.97 257.91H115.67C122.054 257.91 127.23 252.734 127.23 246.35V230.74C127.23 224.356 122.054 219.18 115.67 219.18Z" fill="#9FCAFF"/>
<path d="M393.01 238.55H331.31C324.926 238.55 319.75 243.726 319.75 250.11V265.72C319.75 272.104 324.926 277.28 331.31 277.28H393.01C399.394 277.28 404.57 272.104 404.57 265.72V250.11C404.57 243.726 399.394 238.55 393.01 238.55Z" fill="#9FCAFF"/>
<path d="M477.83 238.55H416.13C409.746 238.55 404.57 243.726 404.57 250.11V265.72C404.57 272.104 409.746 277.28 416.13 277.28H477.83C484.214 277.28 489.39 272.104 489.39 265.72V250.11C489.39 243.726 484.214 238.55 477.83 238.55Z" fill="#9FCAFF"/>
<path d="M562.65 238.55H500.95C494.566 238.55 489.39 243.726 489.39 250.11V265.72C489.39 272.104 494.566 277.28 500.95 277.28H562.65C569.034 277.28 574.21 272.104 574.21 265.72V250.11C574.21 243.726 569.034 238.55 562.65 238.55Z" fill="#9FCAFF"/>
<path d="M647.46 238.55H585.76C579.376 238.55 574.2 243.726 574.2 250.11V265.72C574.2 272.104 579.376 277.28 585.76 277.28H647.46C653.844 277.28 659.02 272.104 659.02 265.72V250.11C659.02 243.726 653.844 238.55 647.46 238.55Z" fill="#9FCAFF"/>
<path d="M478.19 275.14H415.77C409.584 275.14 404.57 280.155 404.57 286.34V302.67C404.57 308.856 409.584 313.87 415.77 313.87H478.19C484.376 313.87 489.39 308.856 489.39 302.67V286.34C489.39 280.155 484.376 275.14 478.19 275.14Z" fill="#9FCAFF"/>
<path d="M563.01 275.14H500.59C494.404 275.14 489.39 280.155 489.39 286.34V302.67C489.39 308.856 494.404 313.87 500.59 313.87H563.01C569.196 313.87 574.21 308.856 574.21 302.67V286.34C574.21 280.155 569.196 275.14 563.01 275.14Z" fill="#9FCAFF"/>
<path d="M308.55 311.61H246.13C239.944 311.61 234.93 316.624 234.93 322.81V339.14C234.93 345.325 239.944 350.34 246.13 350.34H308.55C314.736 350.34 319.75 345.325 319.75 339.14V322.81C319.75 316.624 314.736 311.61 308.55 311.61Z" fill="#9FCAFF"/>
<path d="M393.37 311.61H330.95C324.764 311.61 319.75 316.624 319.75 322.81V339.14C319.75 345.325 324.764 350.34 330.95 350.34H393.37C399.556 350.34 404.57 345.325 404.57 339.14V322.81C404.57 316.624 399.556 311.61 393.37 311.61Z" fill="#9FCAFF"/>
<path d="M393.37 348.14H330.95C324.764 348.14 319.75 353.155 319.75 359.34V375.67C319.75 381.856 324.764 386.87 330.95 386.87H393.37C399.556 386.87 404.57 381.856 404.57 375.67V359.34C404.57 353.155 399.556 348.14 393.37 348.14Z" fill="#9FCAFF"/>
<path d="M478.19 311.61H415.77C409.584 311.61 404.57 316.624 404.57 322.81V339.14C404.57 345.325 409.584 350.34 415.77 350.34H478.19C484.376 350.34 489.39 345.325 489.39 339.14V322.81C489.39 316.624 484.376 311.61 478.19 311.61Z" fill="#9FCAFF"/>
<path d="M563.01 311.61H500.59C494.404 311.61 489.39 316.624 489.39 322.81V339.14C489.39 345.325 494.404 350.34 500.59 350.34H563.01C569.196 350.34 574.21 345.325 574.21 339.14V322.81C574.21 316.624 569.196 311.61 563.01 311.61Z" fill="#9FCAFF"/>
<path d="M647.82 311.61H585.4C579.214 311.61 574.2 316.624 574.2 322.81V339.14C574.2 345.325 579.214 350.34 585.4 350.34H647.82C654.006 350.34 659.02 345.325 659.02 339.14V322.81C659.02 316.624 654.006 311.61 647.82 311.61Z" fill="#9FCAFF"/>
<path d="M478.19 348.2H415.77C409.584 348.2 404.57 353.214 404.57 359.4V375.73C404.57 381.916 409.584 386.93 415.77 386.93H478.19C484.376 386.93 489.39 381.916 489.39 375.73V359.4C489.39 353.214 484.376 348.2 478.19 348.2Z" fill="#9FCAFF"/>
<path d="M563.01 348.2H500.59C494.404 348.2 489.39 353.214 489.39 359.4V375.73C489.39 381.916 494.404 386.93 500.59 386.93H563.01C569.196 386.93 574.21 381.916 574.21 375.73V359.4C574.21 353.214 569.196 348.2 563.01 348.2Z" fill="#9FCAFF"/>
<path d="M308.55 384.67H246.13C239.944 384.67 234.93 389.684 234.93 395.87V412.2C234.93 418.386 239.944 423.4 246.13 423.4H308.55C314.736 423.4 319.75 418.386 319.75 412.2V395.87C319.75 389.684 314.736 384.67 308.55 384.67Z" fill="#9FCAFF"/>
<path d="M393.37 384.67H330.95C324.764 384.67 319.75 389.684 319.75 395.87V412.2C319.75 418.386 324.764 423.4 330.95 423.4H393.37C399.556 423.4 404.57 418.386 404.57 412.2V395.87C404.57 389.684 399.556 384.67 393.37 384.67Z" fill="#9FCAFF"/>
<path d="M478.19 384.67H415.77C409.584 384.67 404.57 389.684 404.57 395.87V412.2C404.57 418.386 409.584 423.4 415.77 423.4H478.19C484.376 423.4 489.39 418.386 489.39 412.2V395.87C489.39 389.684 484.376 384.67 478.19 384.67Z" fill="#9FCAFF"/>
<path d="M563.01 384.67H500.59C494.404 384.67 489.39 389.684 489.39 395.87V412.2C489.39 418.386 494.404 423.4 500.59 423.4H563.01C569.196 423.4 574.21 418.386 574.21 412.2V395.87C574.21 389.684 569.196 384.67 563.01 384.67Z" fill="#9FCAFF"/>
<path d="M647.82 384.67H585.4C579.214 384.67 574.2 389.684 574.2 395.87V412.2C574.2 418.386 579.214 423.4 585.4 423.4H647.82C654.006 423.4 659.02 418.386 659.02 412.2V395.87C659.02 389.684 654.006 384.67 647.82 384.67Z" fill="#9FCAFF"/>
<path d="M737.08 384.67H665.78C662.047 384.67 659.02 387.696 659.02 391.43V416.64C659.02 420.373 662.047 423.4 665.78 423.4H737.08C740.813 423.4 743.84 420.373 743.84 416.64V391.43C743.84 387.696 740.813 384.67 737.08 384.67Z" fill="#9FCAFF"/>
<path d="M396.42 421.26H327.9C323.399 421.26 319.75 424.909 319.75 429.41V451.84C319.75 456.341 323.399 459.99 327.9 459.99H396.42C400.921 459.99 404.57 456.341 404.57 451.84V429.41C404.57 424.909 400.921 421.26 396.42 421.26Z" fill="#9FCAFF"/>
<path d="M481.24 421.26H412.72C408.219 421.26 404.57 424.909 404.57 429.41V451.84C404.57 456.341 408.219 459.99 412.72 459.99H481.24C485.741 459.99 489.39 456.341 489.39 451.84V429.41C489.39 424.909 485.741 421.26 481.24 421.26Z" fill="#9FCAFF"/>
<path d="M566.06 421.26H497.54C493.039 421.26 489.39 424.909 489.39 429.41V451.84C489.39 456.341 493.039 459.99 497.54 459.99H566.06C570.561 459.99 574.21 456.341 574.21 451.84V429.41C574.21 424.909 570.561 421.26 566.06 421.26Z" fill="#9FCAFF"/>
<path d="M650.87 421.26H582.35C577.849 421.26 574.2 424.909 574.2 429.41V451.84C574.2 456.341 577.849 459.99 582.35 459.99H650.87C655.371 459.99 659.02 456.341 659.02 451.84V429.41C659.02 424.909 655.371 421.26 650.87 421.26Z" fill="#9FCAFF"/>
<path d="M396.42 457.73H327.9C323.399 457.73 319.75 461.379 319.75 465.88V488.31C319.75 492.811 323.399 496.46 327.9 496.46H396.42C400.921 496.46 404.57 492.811 404.57 488.31V465.88C404.57 461.379 400.921 457.73 396.42 457.73Z" fill="#9FCAFF"/>
<path d="M481.24 457.73H412.72C408.219 457.73 404.57 461.379 404.57 465.88V488.31C404.57 492.811 408.219 496.46 412.72 496.46H481.24C485.741 496.46 489.39 492.811 489.39 488.31V465.88C489.39 461.379 485.741 457.73 481.24 457.73Z" fill="#9FCAFF"/>
<path d="M566.06 457.73H497.54C493.039 457.73 489.39 461.379 489.39 465.88V488.31C489.39 492.811 493.039 496.46 497.54 496.46H566.06C570.561 496.46 574.21 492.811 574.21 488.31V465.88C574.21 461.379 570.561 457.73 566.06 457.73Z" fill="#9FCAFF"/>
<path d="M650.87 457.73H582.35C577.849 457.73 574.2 461.379 574.2 465.88V488.31C574.2 492.811 577.849 496.46 582.35 496.46H650.87C655.371 496.46 659.02 492.811 659.02 488.31V465.88C659.02 461.379 655.371 457.73 650.87 457.73Z" fill="#9FCAFF"/>
<path d="M311.6 494.32H243.08C238.579 494.32 234.93 497.969 234.93 502.47V524.9C234.93 529.401 238.579 533.05 243.08 533.05H311.6C316.101 533.05 319.75 529.401 319.75 524.9V502.47C319.75 497.969 316.101 494.32 311.6 494.32Z" fill="#9FCAFF"/>
<path d="M396.42 494.32H327.9C323.399 494.32 319.75 497.969 319.75 502.47V524.9C319.75 529.401 323.399 533.05 327.9 533.05H396.42C400.921 533.05 404.57 529.401 404.57 524.9V502.47C404.57 497.969 400.921 494.32 396.42 494.32Z" fill="#9FCAFF"/>
<path d="M481.24 494.32H412.72C408.219 494.32 404.57 497.969 404.57 502.47V524.9C404.57 529.401 408.219 533.05 412.72 533.05H481.24C485.741 533.05 489.39 529.401 489.39 524.9V502.47C489.39 497.969 485.741 494.32 481.24 494.32Z" fill="#9FCAFF"/>
<path d="M566.06 494.32H497.54C493.039 494.32 489.39 497.969 489.39 502.47V524.9C489.39 529.401 493.039 533.05 497.54 533.05H566.06C570.561 533.05 574.21 529.401 574.21 524.9V502.47C574.21 497.969 570.561 494.32 566.06 494.32Z" fill="#9FCAFF"/>
<path d="M650.87 494.32H582.35C577.849 494.32 574.2 497.969 574.2 502.47V524.9C574.2 529.401 577.849 533.05 582.35 533.05H650.87C655.371 533.05 659.02 529.401 659.02 524.9V502.47C659.02 497.969 655.371 494.32 650.87 494.32Z" fill="#9FCAFF"/>
<path d="M311.6 530.79H243.08C238.579 530.79 234.93 534.439 234.93 538.94V561.37C234.93 565.871 238.579 569.52 243.08 569.52H311.6C316.101 569.52 319.75 565.871 319.75 561.37V538.94C319.75 534.439 316.101 530.79 311.6 530.79Z" fill="#9FCAFF"/>
<path d="M397.81 530.79H326.51C322.777 530.79 319.75 533.817 319.75 537.55V562.76C319.75 566.494 322.777 569.52 326.51 569.52H397.81C401.543 569.52 404.57 566.494 404.57 562.76V537.55C404.57 533.817 401.543 530.79 397.81 530.79Z" fill="#9FCAFF"/>
<path d="M481.24 530.79H412.72C408.219 530.79 404.57 534.439 404.57 538.94V561.37C404.57 565.871 408.219 569.52 412.72 569.52H481.24C485.741 569.52 489.39 565.871 489.39 561.37V538.94C489.39 534.439 485.741 530.79 481.24 530.79Z" fill="#9FCAFF"/>
<path d="M566.06 530.79H497.54C493.039 530.79 489.39 534.439 489.39 538.94V561.37C489.39 565.871 493.039 569.52 497.54 569.52H566.06C570.561 569.52 574.21 565.871 574.21 561.37V538.94C574.21 534.439 570.561 530.79 566.06 530.79Z" fill="#9FCAFF"/>
<path d="M652.43 530.79H580.79C577.15 530.79 574.2 533.741 574.2 537.38V562.93C574.2 566.57 577.15 569.52 580.79 569.52H652.43C656.069 569.52 659.02 566.57 659.02 562.93V537.38C659.02 533.741 656.069 530.79 652.43 530.79Z" fill="#9FCAFF"/>
<path d="M311.6 567.38H243.08C238.579 567.38 234.93 571.029 234.93 575.53V597.96C234.93 602.461 238.579 606.11 243.08 606.11H311.6C316.101 606.11 319.75 602.461 319.75 597.96V575.53C319.75 571.029 316.101 567.38 311.6 567.38Z" fill="#9FCAFF"/>
<path d="M396.42 567.38H327.9C323.399 567.38 319.75 571.029 319.75 575.53V597.96C319.75 602.461 323.399 606.11 327.9 606.11H396.42C400.921 606.11 404.57 602.461 404.57 597.96V575.53C404.57 571.029 400.921 567.38 396.42 567.38Z" fill="#9FCAFF"/>
<path d="M481.24 567.38H412.72C408.219 567.38 404.57 571.029 404.57 575.53V597.96C404.57 602.461 408.219 606.11 412.72 606.11H481.24C485.741 606.11 489.39 602.461 489.39 597.96V575.53C489.39 571.029 485.741 567.38 481.24 567.38Z" fill="#9FCAFF"/>
<path d="M567.62 567.38H495.98C492.34 567.38 489.39 570.33 489.39 573.97V599.52C489.39 603.159 492.34 606.11 495.98 606.11H567.62C571.26 606.11 574.21 603.159 574.21 599.52V573.97C574.21 570.33 571.26 567.38 567.62 567.38Z" fill="#9FCAFF"/>
<path d="M652.43 567.38H580.79C577.15 567.38 574.2 570.33 574.2 573.97V599.52C574.2 603.159 577.15 606.11 580.79 606.11H652.43C656.069 606.11 659.02 603.159 659.02 599.52V573.97C659.02 570.33 656.069 567.38 652.43 567.38Z" fill="#9FCAFF"/>
<path d="M735.69 494.32H667.17C662.669 494.32 659.02 497.969 659.02 502.47V524.9C659.02 529.401 662.669 533.05 667.17 533.05H735.69C740.191 533.05 743.84 529.401 743.84 524.9V502.47C743.84 497.969 740.191 494.32 735.69 494.32Z" fill="#9FCAFF"/>
<path d="M737.25 567.38H665.61C661.97 567.38 659.02 570.33 659.02 573.97V599.52C659.02 603.159 661.97 606.11 665.61 606.11H737.25C740.89 606.11 743.84 603.159 743.84 599.52V573.97C743.84 570.33 740.89 567.38 737.25 567.38Z" fill="#9FCAFF"/>
</g>
<path opacity="0.1" d="M613.12 568.27C612.873 568.079 612.616 567.902 612.35 567.74C612.35 567.74 611.35 556.3 605.12 549.23C598.89 542.16 597.72 522.64 597.72 522.64C596.946 522.515 596.164 522.451 595.38 522.45C595.1 521.84 594.66 520.89 594.18 519.77C593.18 517.3 591.92 514.09 591.82 512.37C591.66 509.37 584.42 493.02 584.42 493.02C584.42 493.02 576.85 454.83 563.04 442.71C563.04 442.71 557.49 434.96 557.49 430.76C557.49 426.56 551.1 424.7 551.1 424.7C551.1 424.7 546.88 412.42 547.23 409.05C547.58 405.68 537.97 394.4 537.97 394.4C537.97 394.4 536.7 382.96 534.23 380.11C531.76 377.26 532.23 369.48 532.23 369.48C532.23 369.48 525 362.77 525.67 358.39C526.34 354.01 523.48 346.77 523.48 346.77C523.48 346.77 528.48 337.94 529.08 330.77C529.165 329.872 529.165 328.968 529.08 328.07C530.192 327.908 531.262 327.531 532.23 326.96C537.28 322.74 531.06 283.52 531.06 283.52C531.06 283.52 524.15 261.52 527.69 244.99C531.23 228.46 516.07 151.94 516.07 151.94C516.07 151.94 513.63 143.18 511 138.09C510.83 137.77 510.66 137.47 510.49 137.18C512.4 135.78 513.04 132.57 513.04 132.57C513.04 132.57 520.29 122.48 516.04 119.57C512.18 116.95 505.84 115.88 504.17 112.11C504.074 111.872 503.993 111.628 503.93 111.38C508.05 112.27 511.54 113.07 512.58 113.46C515.58 114.58 523.13 115.93 524.14 108.46C525.15 100.99 510.23 82.5499 508.88 81.8699C507.53 81.1899 505.29 75.5899 505.29 75.5899C506.86 72.6699 502.6 69.3099 502.6 69.3099L500.4 70.4799C500.1 65.0899 499.46 58.9899 499.46 58.9899C499.46 58.9899 497.77 55.1699 494.74 42.1599C491.71 29.1499 485.32 35.1599 483.08 34.8599C480.84 34.5599 468.38 36.5499 463.67 37.6699C458.96 38.7899 438.2 53.9399 436.67 54.2699C435.14 54.5999 429.49 65.0399 428.81 67.2699C428.57 68.0699 429.81 68.9999 431.43 69.8599C431.19 70.1799 430.96 70.4999 430.73 70.8599C426.652 76.9476 425.03 84.3534 426.189 91.5884C427.349 98.8235 431.204 105.351 436.98 109.86C436.62 110.72 436.26 111.59 435.98 112.48C435.792 113.04 435.638 113.611 435.52 114.19C433.662 115.078 432.019 116.357 430.702 117.94C429.385 119.523 428.426 121.372 427.89 123.36C426.47 128.63 425.08 135.59 426.78 138.07C428.403 140.372 429.116 143.193 428.78 145.99C428.93 146.66 440.03 156.09 440.03 161.31C440.03 166.53 447.44 160.46 448.79 159.31C449.06 159.07 450.38 158.08 452.34 156.67L451.52 158.61C448.72 165.13 444.68 174.16 443.4 175.12C441.4 176.64 429.26 219.22 429.6 224.26C429.94 229.3 428.6 256.92 428.6 256.92C428.6 256.92 424.39 296.28 421.2 301.35C421.2 301.35 419 320.02 416.98 320.52C414.96 321.02 414.13 325.07 424.74 326.93C428.32 327.55 433.39 328.23 438.53 328.86L437.1 331.37L419.18 362.77L404.18 398.61C404.18 398.61 401.49 407.71 398.8 407.71C396.11 407.71 394.26 416.62 394.26 416.62C394.26 416.62 389.37 426.2 391.07 428.57C392.77 430.94 394.26 437.15 392.07 438C389.88 438.85 388.39 461 388.39 461L376.39 503.92C376.39 503.92 373.02 506.92 373.7 510.48C374.38 514.04 370.33 514.34 370.33 514.34C369.408 515.915 368.677 517.593 368.15 519.34C368.1 519.53 368.08 519.71 368.05 519.88C367.093 520.307 366.297 521.029 365.78 521.94C361.78 528.85 355.68 543.14 352.16 544.83C348.64 546.52 341.22 548.02 335.49 547.52C329.76 547.02 322.7 549.4 319.68 547.61C316.399 545.988 312.852 544.972 309.21 544.61C305.67 544.4 303.28 545.61 306.04 550.35C311.77 560.09 327.92 571.54 331.62 572.56C335.32 573.58 367.3 586.7 370.67 588.21C374.04 589.72 382.61 591.21 382.96 588.21C383.31 585.21 382.11 578.44 382.11 578.44C382.116 578.41 382.116 578.38 382.11 578.35C382.72 577.14 388.78 564.81 388.31 561.44C387.79 557.91 403.12 538.9 399.75 533.34C399.75 533.34 399.96 532.27 400.22 530.82C400.662 528.599 400.956 526.35 401.1 524.09C401.1 521.56 412.7 501.88 412.7 501.88C412.7 501.88 426.16 472.58 426.7 464.18C427.24 455.78 430.9 454.41 430.9 454.41C430.9 454.41 431.57 453.73 432.58 449.87C433.59 446.01 432.75 439.27 432.75 439.27C432.75 439.27 438.46 435.27 438.64 432.7C438.82 430.13 476.64 381.38 476.64 381.38C476.64 381.38 479.17 381.88 480.34 386.26C481.51 390.64 514 450.05 514 450.05C514 450.05 528.64 454.25 529.66 463.83L535.72 474.44L547.48 495.44C547.48 495.44 551.2 506.56 555.91 510.09C555.91 510.09 558.91 516.15 557.76 519C556.61 521.85 562.29 524.06 562.29 524.06C562.29 524.06 563.22 528.59 563.65 531.63C563.794 532.432 563.875 533.245 563.89 534.06C563.091 534.949 562.552 536.04 562.332 537.215C562.111 538.389 562.218 539.602 562.64 540.72C566.01 551.99 570.05 558.89 566.64 562.72C563.23 566.55 554.53 577.36 554.53 577.36C554.53 577.36 541.53 581.24 538.69 582.36C536.93 583.09 535.99 585.63 537.27 588.1C538.424 590.028 540.257 591.455 542.41 592.1C549.64 594.8 582.96 593.61 582.96 593.61C582.96 593.61 614.96 581.67 616.28 576.11C617.42 572.08 614.57 569.32 613.12 568.27Z" fill="black"/>
<path d="M720.39 123.44C720.399 124.242 720.362 125.043 720.28 125.84C719.621 133.351 716.045 140.304 710.32 145.209C704.594 150.114 697.174 152.58 689.651 152.078C682.128 151.576 675.102 148.146 670.078 142.523C665.055 136.901 662.435 129.534 662.78 122.002C663.126 114.471 666.409 107.374 671.925 102.235C677.441 97.0955 684.752 94.3226 692.289 94.5107C699.827 94.6988 706.99 97.833 712.243 103.241C717.496 108.649 720.421 115.901 720.39 123.44Z" fill="#FDC2CC"/>
<path d="M671.19 108.82C671.03 110.13 671.42 111.45 671.31 112.76C671.16 114.47 670.18 115.96 669.44 117.5C668.7 119.04 668.16 120.9 668.92 122.43C669.56 123.73 670.92 124.43 671.92 125.58C673.42 127.39 673.51 130.04 672.83 132.29C672.35 133.9 671.54 135.7 672.39 137.15C673.13 138.4 674.9 138.86 675.39 140.22C675.613 141.097 675.521 142.024 675.13 142.84C674.37 144.89 673.36 146.84 672.69 148.92C671.911 150.976 671.793 153.223 672.35 155.35C672.414 155.62 672.549 155.868 672.74 156.07C673.034 156.274 673.382 156.385 673.74 156.39L676.5 156.68C677.59 156.8 678.94 156.79 679.5 155.83C679.76 155.37 679.78 154.74 680.23 154.47C680.68 154.2 681.49 154.67 681.97 155.15C684.727 157.928 688.343 159.69 692.23 160.15C693.253 160.365 694.319 160.201 695.23 159.69C696.06 159.11 696.47 158.07 697.23 157.48C699.07 156.12 701.8 157.65 703.93 156.81C705.82 156.06 706.53 153.75 706.61 151.71C706.69 149.67 706.42 147.54 707.3 145.71C708.06 144.494 708.92 143.344 709.87 142.27C711.392 139.9 711.98 137.049 711.52 134.27C711.065 131.528 710.223 128.865 709.02 126.36C707.11 121.96 704.9 117.53 701.34 114.36C700.543 113.729 699.818 113.011 699.18 112.22C697.56 109.94 697.99 106.6 696.18 104.47C694.73 102.75 692.26 102.34 690.01 102.38C686.899 102.428 683.832 103.13 681.01 104.44C680.157 104.888 679.249 105.224 678.31 105.44C676.56 105.75 675.69 104.25 674 105C673.245 105.345 672.59 105.876 672.099 106.545C671.607 107.213 671.294 107.997 671.19 108.82Z" fill="#464A5F"/>
<g opacity="0.1">
<path d="M679.69 105.53C680.634 105.32 681.546 104.984 682.4 104.53C685.119 103.286 688.061 102.606 691.05 102.53C690.7 102.53 690.35 102.53 690.05 102.53C686.939 102.578 683.872 103.28 681.05 104.59C680.247 105.017 679.398 105.352 678.52 105.59C678.91 105.652 679.308 105.631 679.69 105.53Z" fill="black"/>
<path d="M677.85 156.68L675.08 156.39C674.722 156.387 674.373 156.275 674.08 156.07C673.886 155.875 673.75 155.629 673.69 155.36C673.134 153.231 673.249 150.981 674.02 148.92C674.7 146.84 675.71 144.92 676.46 142.84C676.856 142.026 676.948 141.096 676.72 140.22C676.21 138.86 674.44 138.4 673.72 137.15C672.86 135.71 673.72 133.9 674.16 132.29C674.84 130.04 674.75 127.39 673.25 125.58C672.32 124.46 670.92 123.73 670.25 122.43C669.49 120.9 670.02 119.04 670.76 117.51C671.5 115.98 672.49 114.51 672.64 112.76C672.75 111.45 672.36 110.13 672.52 108.82C672.639 108.009 672.962 107.241 673.458 106.588C673.955 105.936 674.609 105.42 675.36 105.09C675.468 105.049 675.578 105.015 675.69 104.99C675.141 104.81 674.544 104.846 674.02 105.09C673.269 105.421 672.614 105.937 672.116 106.589C671.618 107.241 671.292 108.008 671.17 108.82C671.01 110.13 671.4 111.45 671.29 112.76C671.14 114.47 670.16 115.97 669.42 117.51C668.68 119.05 668.14 120.9 668.9 122.43C669.54 123.73 670.9 124.43 671.9 125.58C673.4 127.39 673.49 130.04 672.81 132.29C672.33 133.9 671.52 135.71 672.37 137.15C673.11 138.4 674.88 138.86 675.37 140.22C675.593 141.097 675.501 142.024 675.11 142.84C674.35 144.89 673.34 146.84 672.67 148.92C671.891 150.979 671.772 153.23 672.33 155.36C672.395 155.627 672.529 155.872 672.72 156.07C673.014 156.274 673.362 156.385 673.72 156.39L676.48 156.68C676.962 156.735 677.448 156.735 677.93 156.68H677.85Z" fill="black"/>
<path d="M693.57 160.19C689.686 159.723 686.072 157.962 683.31 155.19C682.84 154.71 682.15 154.19 681.57 154.51C681.498 154.557 681.437 154.618 681.39 154.69C681.597 154.841 681.791 155.008 681.97 155.19C684.73 157.964 688.345 159.725 692.23 160.19C692.771 160.255 693.319 160.255 693.86 160.19H693.57Z" fill="black"/>
<path d="M700.1 156.96C701.019 157.071 701.945 157.108 702.87 157.07C701.952 156.945 701.025 156.908 700.1 156.96Z" fill="black"/>
</g>
<path d="M832.42 559.58C830.57 569.52 800.11 571.2 800.57 570.87C800.685 569.967 800.628 569.051 800.4 568.17C799.97 565.17 799.04 560.61 799.04 560.61C799.04 560.61 793.34 558.41 794.51 555.54C795.68 552.67 792.66 546.63 792.66 546.63C787.95 543.1 784.24 531.98 784.24 531.98L772.47 510.98L766.41 500.37C765.41 490.79 750.75 486.59 750.75 486.59C750.75 486.59 718.27 427.18 717.09 422.8C715.91 418.42 713.39 417.93 713.39 417.93C713.39 417.93 675.57 466.69 675.4 469.27C675.23 471.85 669.51 475.84 669.51 475.84C669.51 475.84 670.35 482.57 669.34 486.43C668.33 490.29 667.66 490.97 667.66 490.97C667.66 490.97 663.95 492.32 663.46 500.74C662.97 509.16 649.46 538.44 649.46 538.44C649.46 538.44 637.86 558.12 637.86 560.66C637.716 562.92 637.422 565.169 636.98 567.39C636.73 568.83 636.51 569.91 636.51 569.91C636.51 569.91 607.57 559.08 605.39 558.27C604.64 557.98 604.6 557 604.89 555.84C605.417 554.093 606.148 552.415 607.07 550.84C607.07 550.84 611.07 550.52 610.44 546.98C609.81 543.44 613.13 540.42 613.13 540.42L625.13 497.5C625.13 497.5 626.63 475.29 628.82 474.45C631.01 473.61 629.49 467.37 627.82 465.03C626.15 462.69 631.01 453.03 631.01 453.03C631.01 453.03 632.85 444.12 635.55 444.12C638.25 444.12 640.93 435.02 640.93 435.02L655.93 399.18L673.85 367.78L677.64 361.15C677.64 361.15 753.04 354.41 762.29 358.79C765.4 360.26 766.19 363.5 765.87 367.15C765.23 374.35 760.27 383.15 760.27 383.15C760.27 383.15 763.13 390.4 762.46 394.77C761.79 399.14 769.02 405.87 769.02 405.87C769.02 405.87 768.52 413.62 771.02 416.49C773.52 419.36 774.76 430.79 774.76 430.79C774.76 430.79 784.35 442.07 784.02 445.44C783.69 448.81 787.89 461.08 787.89 461.08C787.89 461.08 794.28 462.94 794.28 467.14C794.28 471.34 799.83 479.14 799.83 479.14C813.57 491.27 821.14 529.47 821.14 529.47C821.14 529.47 828.38 545.8 828.54 548.81C828.64 550.54 829.86 553.74 830.9 556.22C831.72 558.12 832.42 559.58 832.42 559.58Z" fill="#5F5D7E"/>
<path opacity="0.1" d="M720.39 123.44C720.398 124.241 720.362 125.043 720.28 125.84C716.88 127.6 713.5 129.31 710.69 130.73C706.69 132.73 703.9 134.09 703.9 134.09C703.9 134.09 689.2 125.09 686.51 120.96C683.82 116.83 675.51 110.53 675.51 110.53C675.51 110.53 673.43 109.9 671.17 109C669.887 108.508 668.641 107.926 667.44 107.26C670.918 102.132 675.947 98.2534 681.789 96.1915C687.632 94.1296 693.982 93.9932 699.908 95.8023C705.833 97.6113 711.024 101.271 714.719 106.244C718.414 111.218 720.419 117.244 720.44 123.44H720.39Z" fill="black"/>
<path d="M675.51 109.19C675.51 109.19 664.85 105.93 665.51 103.69C666.17 101.45 671.79 91.0099 673.36 90.6899C674.93 90.3699 695.69 75.1999 700.36 74.0799C705.03 72.9599 717.52 70.9399 719.77 71.2799C722.02 71.6199 728.41 65.56 731.44 78.57C734.47 91.58 736.15 95.4 736.15 95.4C736.15 95.4 737.94 112.34 736.93 114.7C735.92 117.06 703.84 132.76 703.84 132.76C703.84 132.76 689.14 123.76 686.45 119.63C683.76 115.5 675.51 109.19 675.51 109.19Z" fill="#65617D"/>
<path opacity="0.1" d="M765.82 367.18C751.28 370.27 695.57 370.27 695.57 370.27C695.57 370.27 684.25 369.14 673.78 367.82L677.57 361.19C677.57 361.19 752.97 354.45 762.22 358.83C765.35 360.27 766.14 363.53 765.82 367.18Z" fill="black"/>
<path d="M768.97 363.37C763.97 367.57 695.59 367.57 695.59 367.57C695.59 367.57 672.03 365.21 661.44 363.37C650.85 361.53 651.66 357.47 653.68 356.96C655.7 356.45 657.9 337.79 657.9 337.79C661.09 332.73 665.3 293.36 665.3 293.36C665.3 293.36 666.65 265.76 666.3 260.7C665.95 255.64 678.08 213.08 680.1 211.56C681.38 210.56 685.42 201.56 688.22 195.05C689.83 191.27 691.05 188.35 691.05 188.35C699.62 172.87 741.86 169.15 745.22 171.17C746.316 172.063 747.177 173.209 747.73 174.51C750.37 179.6 752.8 188.35 752.8 188.35C752.8 188.35 767.95 264.91 764.42 281.41C760.89 297.91 767.79 319.94 767.79 319.94C767.79 319.94 774.02 359.16 768.97 363.37Z" fill="#9FCAFF"/>
<path d="M721.69 350.07H706.54V356.8H721.69V350.07Z" fill="#5F5D7E"/>
<path opacity="0.1" d="M683.48 362.69C683.48 362.69 675.73 376.69 673.04 377.16C670.35 377.63 666.48 398.87 681.96 406.16C697.44 413.45 697.96 384.45 697.96 384.45L704.12 360.05L687.35 353.82L683.48 362.69Z" fill="black"/>
<path d="M682.13 361.34C682.13 361.34 674.39 375.34 671.7 375.82C669.01 376.3 665.13 397.53 680.62 404.76C696.11 411.99 696.62 383.05 696.62 383.05L702.77 358.65L686.01 352.42L682.13 361.34Z" fill="#464A5F"/>
<path opacity="0.1" d="M747.26 423.44C747.26 423.44 759.38 436.44 765.94 430.68C772.5 424.92 747.26 423.44 747.26 423.44Z" fill="black"/>
<path opacity="0.1" d="M766.28 443.64C766.28 443.64 776.2 456.09 776.37 449.36C776.54 442.63 766.28 443.64 766.28 443.64Z" fill="black"/>
<path opacity="0.1" d="M776.37 473.27C776.37 473.27 783.44 473.77 785.97 470.07L776.37 473.27Z" fill="black"/>
<path opacity="0.1" d="M783.44 484.36C783.44 484.36 788.15 486.89 791.35 483.02L783.44 484.36Z" fill="black"/>
<path opacity="0.1" d="M697.95 393.99C697.95 393.99 700.95 411.16 713.43 417.89L697.95 393.99Z" fill="black"/>
<path opacity="0.1" d="M647.8 488.27C647.8 488.27 646.28 492.65 654.7 493.83C663.12 495.01 647.8 488.27 647.8 488.27Z" fill="black"/>
<path opacity="0.1" d="M651.67 473.27C651.67 473.27 657.22 483.68 659.41 483.01L651.67 473.27Z" fill="black"/>
<path opacity="0.1" d="M658.74 464.12C658.74 464.12 660.42 468.88 664.63 468.38C668.84 467.88 658.74 464.12 658.74 464.12Z" fill="black"/>
<path opacity="0.1" d="M637 567.34C636.75 568.78 636.53 569.86 636.53 569.86C636.53 569.86 607.57 559.08 605.39 558.27C604.64 557.98 604.6 557 604.89 555.84C609.75 551.49 621.05 559.45 621.05 559.45C621.05 559.45 632.64 562.46 637 567.34Z" fill="black"/>
<path d="M618.89 614.86C618.894 614.893 618.894 614.927 618.89 614.96C618.89 614.96 620.06 621.69 619.74 624.72C619.42 627.75 610.81 626.23 607.45 624.72C604.09 623.21 572.11 610.07 568.45 609.07C564.79 608.07 548.59 596.61 542.87 586.86C540.11 582.13 542.49 580.86 546.03 581.12C549.672 581.482 553.219 582.498 556.5 584.12C559.5 585.91 566.6 583.52 572.31 584.02C578.02 584.52 585.45 583.02 588.98 581.33C592.51 579.64 598.56 565.33 602.6 558.44C606.64 551.55 619.78 560.8 619.78 560.8C619.78 560.8 633.16 564.27 636.57 569.86C639.98 575.45 624.57 594.43 625.13 597.95C625.69 601.47 619.5 613.65 618.89 614.86Z" fill="#464A5F"/>
<path d="M619.7 624.72C619.35 627.72 610.77 626.23 607.41 624.72C604.05 623.21 572.07 610.07 568.41 609.07C564.75 608.07 548.55 596.61 542.83 586.86C540.07 582.13 542.45 580.86 545.99 581.12C547.896 585.178 550.877 588.637 554.61 591.12C564.54 598.12 586.08 608 586.08 608C586.08 608 598.2 607.5 603.75 611C607.41 613.33 614.53 614.34 618.93 614.77C618.934 614.803 618.934 614.837 618.93 614.87C618.93 614.87 620.02 621.69 619.7 624.72Z" fill="#464A5F"/>
<path d="M614.98 570.9C614.98 570.9 603.03 593.58 603.03 595.1C603.03 596.62 598.32 610.75 598.32 610.75L606.65 614.12L609.77 595.94L620.87 574.06L614.98 570.9Z" fill="#464A5F"/>
<path opacity="0.1" d="M832.42 559.58C830.57 569.52 800.11 571.2 800.57 570.87C800.685 569.967 800.628 569.051 800.4 568.17C804.43 563.27 815.57 563.27 815.57 563.27C819.595 559.06 825.082 556.555 830.9 556.27C831.72 558.12 832.42 559.58 832.42 559.58Z" fill="black"/>
<path d="M853.11 612.76C851.77 618.32 819.79 630.26 819.79 630.26C819.79 630.26 786.47 631.45 779.24 628.76C777.09 628.111 775.258 626.685 774.1 624.76C772.82 622.3 773.76 619.76 775.52 619.03C778.39 617.85 791.36 613.98 791.36 613.98C791.36 613.98 800.11 603.21 803.47 599.33C806.83 595.45 802.8 588.56 799.47 577.33C796.14 566.1 815.57 565.99 815.57 565.99C824.32 557.07 834.42 559.08 834.42 559.08C834.42 559.08 835.59 578.61 841.82 585.67C848.05 592.73 849.05 604.19 849.05 604.19C849.318 604.346 849.575 604.52 849.82 604.71C851.28 605.79 854.14 608.55 853.11 612.76Z" fill="#464A5F"/>
<path d="M853.11 612.76C851.77 618.32 819.79 630.26 819.79 630.26C819.79 630.26 786.47 631.45 779.24 628.76C777.09 628.111 775.258 626.685 774.1 624.76C780.99 625.84 793.98 627.76 796.1 627.28C798.95 626.61 810.1 627.78 816.46 622.22C822.82 616.66 832.46 612.79 832.46 612.79C832.46 612.79 843.93 608.13 849.88 604.79C851.28 605.79 854.14 608.55 853.11 612.76Z" fill="#464A5F"/>
<path d="M819.96 575.75L825.85 597.96L833.43 615.46L839.49 612.6L830.57 595.61L824.17 575.75H819.96Z" fill="#464A5F"/>
<path opacity="0.1" d="M620.87 574.06L614.98 570.9C614.98 570.9 603.03 593.58 603.03 595.1C603.03 596.3 600.03 605.47 598.84 609.19C594.634 608.303 590.337 607.92 586.04 608.05C586.04 608.05 564.5 598.13 554.57 591.17C550.837 588.687 547.856 585.228 545.95 581.17C542.41 580.96 540.03 582.17 542.79 586.91C548.51 596.66 564.66 608.1 568.37 609.12C572.08 610.14 604.04 623.26 607.37 624.77C610.7 626.28 619.31 627.77 619.66 624.77C620.01 621.77 618.81 615.01 618.81 615.01C618.814 614.977 618.814 614.943 618.81 614.91C614.738 614.59 610.714 613.822 606.81 612.62L609.66 595.99L620.87 574.06Z" fill="black"/>
<path opacity="0.1" d="M849.84 604.71C846.69 606.51 841.99 608.66 838.27 610.29L830.57 595.6L824.18 575.75H819.97L825.86 597.96L832.29 612.82C831.12 613.31 822.39 617.02 816.44 622.19C810.04 627.75 798.93 626.58 796.08 627.25C793.99 627.73 781 625.81 774.08 624.73C775.238 626.655 777.07 628.081 779.22 628.73C786.45 631.42 819.77 630.23 819.77 630.23C819.77 630.23 851.77 618.29 853.09 612.73C854.14 608.55 851.28 605.79 849.84 604.71Z" fill="black"/>
<path d="M696.04 139.03C696.04 139.03 710.96 121.42 715.68 118.61C720.4 115.8 739.35 105.71 739.35 105.71C739.35 105.71 743.61 109.08 742.04 111.99C742.04 111.99 744.29 117.6 745.63 118.28C746.97 118.96 761.9 137.35 760.89 144.87C759.88 152.39 752.36 151.04 749.33 149.87C746.3 148.7 722.86 144.15 722.86 144.15L696.04 139.03Z" fill="#9FCAFF"/>
<path opacity="0.1" d="M718.82 126.92C718.82 126.92 729.03 123.92 729.82 126.92C730.61 129.92 718.82 126.92 718.82 126.92Z" fill="black"/>
<path opacity="0.1" d="M747.74 174.51C747.535 174.704 747.318 174.884 747.09 175.05C745.09 176.39 723.69 176.39 718.82 176.39C714.76 176.39 695.5 189.77 688.23 195.05C689.84 191.27 691.06 188.35 691.06 188.35C699.63 172.87 741.87 169.15 745.23 171.17C746.326 172.063 747.187 173.209 747.74 174.51Z" fill="black"/>
<path d="M749.78 168.99C749.78 168.99 749.11 172.35 747.09 173.7C745.07 175.05 723.69 175.05 718.82 175.05C713.95 175.05 686.82 194.57 685.5 195.75C684.18 196.93 676.74 202.98 676.74 197.75C676.74 192.52 665.64 183.1 665.49 182.43C665.826 179.634 665.113 176.812 663.49 174.51C661.79 172.03 663.18 165.07 664.6 159.8C665.139 157.814 666.1 155.966 667.416 154.384C668.733 152.802 670.375 151.521 672.23 150.63C678.4 147.63 688.07 142.86 693.11 139.69C694.34 138.9 696.4 138.58 699 138.57C712.56 138.57 740.62 147.44 740.62 147.44C740.687 147.818 740.798 148.187 740.95 148.54C742.62 152.31 748.95 153.37 752.82 156C757.03 158.89 749.78 168.99 749.78 168.99Z" fill="#5F5D7E"/>
<path opacity="0.1" d="M672.2 167.47C672.2 167.47 688.52 168.31 689.37 169.07C690.22 169.83 672.2 167.47 672.2 167.47Z" fill="black"/>
<path opacity="0.1" d="M716.97 184.98C716.97 184.98 691.44 197.43 693.35 207.53C693.35 207.53 696.6 211.06 695.09 214.93C693.58 218.8 692.23 246.06 694.09 248.08C695.95 250.1 697.96 254.98 696.95 258.35C695.94 261.72 698.46 276.86 698.46 276.86C698.46 276.86 702.17 284.43 697.79 286.12C693.41 287.81 697.29 293.35 697.29 293.35C697.29 293.35 697.29 300.25 693.19 300.59C689.09 300.93 692.41 309.68 692.41 309.68C692.41 309.68 690.41 315.57 687.19 315.06C683.97 314.55 689.04 323.48 689.04 323.48C689.04 323.48 676.75 331.72 678.27 345.36L676.57 354.61L700.8 365.05L704 358.99C704 358.99 710.56 357.47 709.72 353.43C708.88 349.39 714.1 347.04 714.1 347.04C714.1 347.04 715.1 340.81 718.47 338.12C721.84 335.43 727.05 323.98 727.05 323.98C727.05 323.98 730.05 317.59 734.29 314.9C738.53 312.21 741.86 299.08 741.86 299.08L744.39 208.7C744.39 208.7 735.14 180.94 716.97 184.98Z" fill="black"/>
<path opacity="0.1" d="M722.35 184.98C722.35 184.98 696.83 197.43 698.73 207.53C698.73 207.53 701.99 211.06 700.47 214.93C698.95 218.8 697.61 246.06 699.47 248.08C701.33 250.1 703.34 254.98 702.33 258.35C701.32 261.72 703.85 276.86 703.85 276.86C703.85 276.86 707.55 284.43 703.18 286.12C698.81 287.81 702.67 293.35 702.67 293.35C702.67 293.35 702.73 300.25 698.58 300.59C694.43 300.93 697.79 309.68 697.79 309.68C697.79 309.68 695.79 315.57 692.57 315.06C689.35 314.55 694.43 323.48 694.43 323.48C694.43 323.48 682.14 331.72 683.65 345.36L681.97 354.61L706.21 365.05L709.4 358.99C709.4 358.99 715.97 357.47 715.12 353.43C714.27 349.39 719.5 347.04 719.5 347.04C719.5 347.04 720.5 340.81 723.88 338.12C727.26 335.43 732.46 323.98 732.46 323.98C732.46 323.98 735.46 317.59 739.7 314.9C743.94 312.21 747.27 299.08 747.27 299.08L749.79 208.7C749.79 208.7 740.57 180.94 722.35 184.98Z" fill="black"/>
<path d="M719.66 184.98C719.66 184.98 694.13 197.43 696.04 207.53C696.04 207.53 699.3 211.06 697.78 214.93C696.26 218.8 694.92 246.06 696.78 248.08C698.64 250.1 700.65 254.98 699.64 258.35C698.63 261.72 701.16 276.86 701.16 276.86C701.16 276.86 704.86 284.43 700.48 286.12C696.1 287.81 699.98 293.35 699.98 293.35C699.98 293.35 700.03 300.25 695.88 300.59C691.73 300.93 695.1 309.68 695.1 309.68C695.1 309.68 693.1 315.57 689.88 315.06C686.66 314.55 691.73 323.48 691.73 323.48C691.73 323.48 679.45 331.72 680.96 345.36L679.28 354.61L703.51 365.05L706.71 358.99C706.71 358.99 713.27 357.47 712.43 353.43C711.59 349.39 716.81 347.04 716.81 347.04C716.81 347.04 717.81 340.81 721.18 338.12C724.55 335.43 729.77 323.98 729.77 323.98C729.77 323.98 732.77 317.59 737 314.9C741.23 312.21 744.57 299.08 744.57 299.08L747.09 208.7C747.09 208.7 737.83 180.94 719.66 184.98Z" fill="#9FCAFF"/>
<path opacity="0.1" d="M701.99 299.27C701.99 299.27 708.89 305.84 708.89 307.69C708.89 309.54 699.8 304.32 699.8 304.32L701.99 299.27Z" fill="black"/>
<path opacity="0.1" d="M697.95 315.4C697.95 315.4 704.68 322.97 702.49 323.31C700.3 323.65 697.95 315.4 697.95 315.4Z" fill="black"/>
<path opacity="0.1" d="M708.89 339.13C708.89 339.13 693.57 341.65 697.11 342.66C700.65 343.67 708.89 339.13 708.89 339.13Z" fill="black"/>
<path opacity="0.1" d="M713.18 289.15C713.18 289.15 740.86 301.6 736.18 304.97C731.5 308.34 713.18 289.15 713.18 289.15Z" fill="black"/>
<path opacity="0.1" d="M740.92 148.56C740.26 148.05 696.04 139.03 696.04 139.03L698.97 138.59C712.53 138.59 740.59 147.46 740.59 147.46C740.657 147.838 740.768 148.207 740.92 148.56Z" fill="black"/>
<path opacity="0.1" d="M709.39 83.9399C709.39 83.9399 722.63 101.39 728.91 96.9399C735.19 92.4899 719.04 82.5999 709.39 83.9399Z" fill="black"/>
<path opacity="0.1" d="M679.27 185.82C679.27 185.82 690.5 182.45 691.45 181.82C692.4 181.19 679.27 185.82 679.27 185.82Z" fill="black"/>
<path opacity="0.1" d="M731.84 168.9C731.84 168.9 743.53 169.9 744.65 169.59C745.77 169.28 731.84 168.9 731.84 168.9Z" fill="black"/>
<path opacity="0.1" d="M737.96 156.87C737.96 156.87 749.64 157.87 750.77 157.55C751.9 157.23 737.96 156.87 737.96 156.87Z" fill="black"/>
<path opacity="0.1" d="M705.25 156.13C705.25 156.13 716.93 157.13 718.06 156.82C719.19 156.51 705.25 156.13 705.25 156.13Z" fill="black"/>
<path opacity="0.1" d="M676.57 179.79C676.57 179.79 687.79 176.42 688.74 175.79C689.69 175.16 676.57 179.79 676.57 179.79Z" fill="black"/>
<path d="M1061.77 475.97L1054.16 597.77C1053.87 602.317 1051.86 606.584 1048.54 609.704C1045.22 612.824 1040.84 614.564 1036.28 614.57H944.57C940.013 614.564 935.63 612.824 932.309 609.704C928.989 606.584 926.98 602.317 926.69 597.77L919.08 475.97C919.05 475.363 919.144 474.755 919.357 474.186C919.569 473.616 919.895 473.095 920.315 472.655C920.735 472.216 921.241 471.866 921.8 471.628C922.36 471.39 922.962 471.268 923.57 471.27H1057.38C1057.99 471.274 1058.59 471.402 1059.14 471.646C1059.7 471.89 1060.2 472.244 1060.62 472.687C1061.03 473.131 1061.35 473.654 1061.56 474.225C1061.77 474.796 1061.86 475.404 1061.82 476.01L1061.77 475.97Z" fill="#464A5F"/>
<path d="M974.57 468.56C976.9 469.49 980.93 471.25 980.93 467.94C980.93 466.55 979.79 466.44 978.71 466.08C974.653 464.608 971.187 461.852 968.84 458.23C964.6 451.97 963.62 445.72 963.62 438.23C963.62 421.65 986.46 418.65 986.46 402.06C986.46 395.71 982.46 393.85 982.46 392.06C982.46 390.92 982.82 390.92 983.96 390.92C988.09 390.92 993.83 397.8 995.58 401.16C996.557 402.903 996.988 404.899 996.82 406.89C996.82 410.51 996.46 414.23 996.46 417.89C996.46 431.84 1012.94 428.12 1012.94 421.4C1012.94 418.3 1011.08 415.4 1011.08 412.4C1011.08 412.04 1011.08 411.78 1011.45 411.78C1013.2 411.78 1016.3 415.78 1017.18 417C1020.18 421.6 1021.57 427.75 1021.57 433.22C1021.57 449.96 1006.33 458.54 1006.33 462.16C1006.33 462.67 1007.83 466.16 1012.58 463.16C1027.93 455.36 1040.02 438.56 1040.02 416.76C1040.02 399.4 1035.52 386.95 1023.43 374.08C1021.43 371.96 1014.96 365.35 1011.81 365.35C1007.57 365.35 1015.53 374.96 1015.53 381.47C1015.58 382.318 1015.45 383.167 1015.15 383.962C1014.85 384.756 1014.38 385.477 1013.78 386.077C1013.18 386.678 1012.46 387.144 1011.66 387.444C1010.87 387.744 1010.02 387.872 1009.17 387.82C1003.17 387.82 1001.68 374.7 1000.96 370.62C997.96 353.15 994.34 340.55 976.96 332.33C971.59 329.75 958.1 326.23 958.1 331.2C958.1 332.44 959.5 333.31 960.48 333.83C965.23 336.72 970.61 344.89 970.61 353.57C970.61 377.39 940.79 399.14 940.79 423.94C940.69 444.76 955.31 461.45 974.53 468.48L974.57 468.56Z" fill="#9FCAFF"/>
</g>
<defs>
<clipPath id="clip0_44_775">
<rect width="1081.15" height="638.54" fill="white"/>
</clipPath>
</defs>
</svg>
